<svg width="48" height="48" viewBox="0 0 48 48" fill="none" xmlns="http://www.w3.org/2000/svg">
<g clip-path="url(#clip0_619_429)">
<path d="M24 0.594238C10.74 0.594238 0 11.3402 0 24.5942C0 35.2002 6.876 44.1942 16.41 47.3642C17.61 47.5902 18.05 46.8482 18.05 46.2102C18.05 45.6402 18.03 44.1302 18.02 42.1302C11.344 43.5782 9.936 38.9102 9.936 38.9102C8.844 36.1402 7.266 35.4002 7.266 35.4002C5.092 33.9122 7.434 33.9422 7.434 33.9422C9.844 34.1102 11.11 36.4142 11.11 36.4142C13.25 40.0842 16.728 39.0242 18.1 38.4102C18.316 36.8582 18.934 35.8002 19.62 35.2002C14.29 34.6002 8.688 32.5362 8.688 23.3402C8.688 20.7202 9.618 18.5802 11.158 16.9002C10.888 16.2942 10.078 13.8542 11.368 10.5482C11.368 10.5482 13.378 9.90424 17.968 13.0082C19.888 12.4742 21.928 12.2102 23.968 12.1982C26.008 12.2102 28.048 12.4742 29.968 13.0082C34.528 9.90424 36.538 10.5482 36.538 10.5482C37.828 13.8542 37.018 16.2942 36.778 16.9002C38.308 18.5802 39.238 20.7202 39.238 23.3402C39.238 32.5602 33.628 34.5902 28.288 35.1802C29.128 35.9002 29.908 37.3722 29.908 39.6202C29.908 42.8322 29.878 45.4122 29.878 46.1922C29.878 46.8222 30.298 47.5722 31.528 47.3322C41.13 44.1842 48 35.1842 48 24.5942C48 11.3402 37.254 0.594238 24 0.594238" fill="white"/>
</g>
<defs>
<clipPath id="clip0_619_429">
<rect width="48" height="48" fill="white"/>
</clipPath>
</defs>
</svg>
