<svg width="29" height="431" viewBox="0 0 29 431" fill="none" xmlns="http://www.w3.org/2000/svg">
<path d="M27.6317 287.532L10.3839 284.641V283.228L12.7767 283.62V283.448C12.401 283.22 12.0145 282.923 11.617 282.558C11.2196 282.188 10.8875 281.728 10.6207 281.178C10.3485 280.623 10.2124 279.958 10.2124 279.185C10.2124 278.151 10.4819 277.293 11.0209 276.613C11.5599 275.927 12.3166 275.448 13.2912 275.175C14.2657 274.898 15.3982 274.868 16.6885 275.086C17.9842 275.298 19.1194 275.704 20.0939 276.302C21.0685 276.901 21.828 277.634 22.3724 278.499C22.9168 279.359 23.1891 280.301 23.1891 281.325C23.1891 282.082 23.053 282.694 22.7807 283.162C22.5085 283.625 22.1737 283.979 21.7762 284.224C21.3734 284.469 20.9814 284.646 20.6003 284.755V284.886L27.6317 286.062V287.532ZM16.664 284.249C17.6766 284.412 18.575 284.412 19.3589 284.249C20.1375 284.085 20.75 283.756 21.1964 283.26C21.6374 282.765 21.8579 282.112 21.8579 281.3C21.8579 280.467 21.6293 279.724 21.1719 279.071C20.7092 278.418 20.0858 277.873 19.3018 277.438C18.5178 277.002 17.6385 276.703 16.664 276.539C15.7003 276.387 14.8319 276.392 14.0588 276.556C13.2857 276.719 12.6732 277.046 12.2214 277.536C11.764 278.026 11.5354 278.693 11.5354 279.536C11.5354 280.353 11.7559 281.088 12.1969 281.741C12.6324 282.389 13.2367 282.928 14.0098 283.358C14.7775 283.788 15.6622 284.085 16.664 284.249ZM22.9277 272.936L10.3839 270.845V269.432L12.3112 269.759V269.653C11.6796 269.304 11.1706 268.784 10.784 268.093C10.3921 267.396 10.1961 266.653 10.1961 265.864C10.1961 265.744 10.1988 265.61 10.2042 265.463C10.2042 265.316 10.2097 265.194 10.2206 265.096L11.6987 265.349C11.6878 265.414 11.6715 265.529 11.6497 265.692C11.6279 265.85 11.617 266.027 11.617 266.223C11.617 266.876 11.7559 267.481 12.0335 268.036C12.3058 268.586 12.6841 269.049 13.1687 269.424C13.6532 269.794 14.2058 270.034 14.8265 270.143L22.9277 271.482V272.936ZM23.1891 260.165C23.1891 261.265 22.9114 262.191 22.3561 262.942C21.7953 263.693 21.0195 264.224 20.0286 264.534C19.0377 264.845 17.8944 264.897 16.5986 264.69C15.3355 264.483 14.2249 264.072 13.2667 263.456C12.303 262.836 11.5544 262.074 11.0209 261.17C10.4819 260.266 10.2124 259.283 10.2124 258.222C10.2124 257.116 10.4928 256.191 11.0535 255.445C11.6143 254.694 12.3901 254.163 13.381 253.853C14.3719 253.537 15.5179 253.482 16.8191 253.689C18.0768 253.896 19.1847 254.31 20.1429 254.931C21.0957 255.551 21.8416 256.313 22.3806 257.217C22.9196 258.116 23.1891 259.098 23.1891 260.165ZM21.8579 260.149C21.8579 259.256 21.6211 258.461 21.1474 257.764C20.6683 257.062 20.0313 256.482 19.2364 256.025C18.4361 255.568 17.5569 255.26 16.5986 255.102C15.684 254.955 14.8428 254.971 14.0752 255.151C13.3075 255.331 12.6923 255.676 12.2295 256.188C11.7668 256.7 11.5354 257.381 11.5354 258.23C11.5354 259.117 11.7776 259.912 12.2622 260.614C12.7413 261.317 13.3837 261.897 14.1895 262.354C14.9898 262.811 15.8664 263.116 16.8191 263.269C17.7392 263.421 18.5804 263.41 19.3426 263.236C20.1048 263.056 20.7146 262.711 21.1719 262.199C21.6293 261.682 21.8579 260.998 21.8579 260.149ZM23.1891 246.578C23.1891 247.678 22.9114 248.604 22.3561 249.355C21.7953 250.106 21.0195 250.637 20.0286 250.947C19.0377 251.258 17.8944 251.309 16.5986 251.102C15.3355 250.896 14.2249 250.485 13.2667 249.869C12.303 249.249 11.5544 248.486 11.0209 247.583C10.4819 246.679 10.2124 245.696 10.2124 244.635C10.2124 243.529 10.4928 242.604 11.0535 241.858C11.6143 241.107 12.3901 240.576 13.381 240.265C14.3719 239.95 15.5179 239.895 16.8191 240.102C18.0768 240.309 19.1847 240.723 20.1429 241.343C21.0957 241.964 21.8416 242.726 22.3806 243.63C22.9196 244.528 23.1891 245.511 23.1891 246.578ZM21.8579 246.562C21.8579 245.669 21.6211 244.874 21.1474 244.177C20.6683 243.475 20.0313 242.895 19.2364 242.438C18.4361 241.98 17.5569 241.673 16.5986 241.515C15.684 241.368 14.8428 241.384 14.0752 241.564C13.3075 241.744 12.6923 242.089 12.2295 242.601C11.7668 243.113 11.5354 243.793 11.5354 244.643C11.5354 245.53 11.7776 246.325 12.2622 247.027C12.7413 247.73 13.3837 248.31 14.1895 248.767C14.9898 249.224 15.8664 249.529 16.8191 249.682C17.7392 249.834 18.5804 249.823 19.3426 249.649C20.1048 249.469 20.7146 249.123 21.1719 248.612C21.6293 248.094 21.8579 247.411 21.8579 246.562ZM10.3839 230.672L11.6497 230.884V237.042L10.3839 236.838V230.672ZM22.9277 237.001L8.54641 234.608C7.8713 234.499 7.30237 234.251 6.8396 233.865C6.37682 233.473 6.02566 233.005 5.78611 232.46C5.54655 231.916 5.42678 231.358 5.42678 230.786C5.42678 230.405 5.45944 230.095 5.52478 229.855C5.58467 229.616 5.64455 229.428 5.70444 229.292L6.97843 229.912C6.94576 230.021 6.90765 230.152 6.86409 230.304C6.82054 230.451 6.79876 230.645 6.79876 230.884C6.79876 231.516 6.9757 232.033 7.32959 232.436C7.68347 232.839 8.1898 233.097 8.84857 233.212L22.9277 235.547V237.001ZM23.1891 218.461C23.1891 219.56 22.9114 220.486 22.3561 221.237C21.7953 221.989 21.0195 222.52 20.0286 222.83C19.0377 223.14 17.8944 223.192 16.5986 222.985C15.3355 222.778 14.2249 222.367 13.2667 221.752C12.303 221.131 11.5544 220.369 11.0209 219.465C10.4819 218.561 10.2124 217.579 10.2124 216.517C10.2124 215.412 10.4928 214.486 11.0535 213.74C11.6143 212.989 12.3901 212.458 13.381 212.148C14.3719 211.832 15.5179 211.778 16.8191 211.985C18.0768 212.192 19.1847 212.605 20.1429 213.226C21.0957 213.847 21.8416 214.609 22.3806 215.513C22.9196 216.411 23.1891 217.394 23.1891 218.461ZM21.8579 218.444C21.8579 217.552 21.6211 216.757 21.1474 216.06C20.6683 215.357 20.0313 214.778 19.2364 214.32C18.4361 213.863 17.5569 213.555 16.5986 213.397C15.684 213.25 14.8428 213.267 14.0752 213.446C13.3075 213.626 12.6923 213.972 12.2295 214.484C11.7668 214.995 11.5354 215.676 11.5354 216.525C11.5354 217.413 11.7776 218.208 12.2622 218.91C12.7413 219.612 13.3837 220.192 14.1895 220.649C14.9898 221.107 15.8664 221.412 16.8191 221.564C17.7392 221.716 18.5804 221.706 19.3426 221.531C20.1048 221.352 20.7146 221.006 21.1719 220.494C21.6293 219.977 21.8579 219.294 21.8579 218.444ZM10.3839 202.554L11.6497 202.767V208.924L10.3839 208.72V202.554ZM22.9277 208.883L8.54641 206.491C7.8713 206.382 7.30237 206.134 6.8396 205.747C6.37682 205.355 6.02566 204.887 5.78611 204.343C5.54655 203.798 5.42678 203.24 5.42678 202.669C5.42678 202.288 5.45944 201.977 5.52478 201.738C5.58467 201.498 5.64455 201.31 5.70444 201.174L6.97843 201.795C6.94576 201.904 6.90765 202.034 6.86409 202.187C6.82054 202.334 6.79876 202.527 6.79876 202.767C6.79876 203.398 6.9757 203.915 7.32959 204.318C7.68347 204.721 8.1898 204.98 8.84857 205.094L22.9277 207.43V208.883ZM22.9277 192.491L10.3839 194.19V192.663L20.7309 191.413V191.307L10.3839 186.619L10.3839 185.076L20.7064 183.859V183.745L10.3839 179.057V177.505L22.9277 183.385V184.888L12.6624 186.162V186.317L22.9277 190.988V192.491ZM23.1891 172.264C23.1891 173.364 22.9114 174.29 22.3561 175.041C21.7953 175.792 21.0195 176.323 20.0286 176.634C19.0377 176.944 17.8944 176.996 16.5986 176.789C15.3355 176.582 14.2249 176.171 13.2667 175.556C12.303 174.935 11.5544 174.173 11.0209 173.269C10.4819 172.365 10.2124 171.382 10.2124 170.321C10.2124 169.216 10.4928 168.29 11.0535 167.544C11.6143 166.793 12.3901 166.262 13.381 165.952C14.3719 165.636 15.5179 165.582 16.8191 165.788C18.0768 165.995 19.1847 166.409 20.1429 167.03C21.0957 167.65 21.8416 168.413 22.3806 169.316C22.9196 170.215 23.1891 171.197 23.1891 172.264ZM21.8579 172.248C21.8579 171.355 21.6211 170.56 21.1474 169.864C20.6683 169.161 20.0313 168.581 19.2364 168.124C18.4361 167.667 17.5569 167.359 16.5986 167.201C15.684 167.054 14.8428 167.071 14.0752 167.25C13.3075 167.43 12.6923 167.776 12.2295 168.287C11.7668 168.799 11.5354 169.48 11.5354 170.329C11.5354 171.216 11.7776 172.011 12.2622 172.714C12.7413 173.416 13.3837 173.996 14.1895 174.453C14.9898 174.91 15.8664 175.215 16.8191 175.368C17.7392 175.52 18.5804 175.509 19.3426 175.335C20.1048 175.155 20.7146 174.81 21.1719 174.298C21.6293 173.781 21.8579 173.097 21.8579 172.248ZM22.9277 163.61L10.3839 161.519V160.107L12.3112 160.433V160.327C11.6796 159.979 11.1706 159.459 10.784 158.767C10.3921 158.07 10.1961 157.327 10.1961 156.538C10.1961 156.418 10.1988 156.285 10.2042 156.138C10.2042 155.991 10.2097 155.868 10.2206 155.77L11.6987 156.023C11.6878 156.089 11.6715 156.203 11.6497 156.366C11.6279 156.524 11.617 156.701 11.617 156.897C11.617 157.55 11.7559 158.155 12.0335 158.71C12.3058 159.26 12.6841 159.723 13.1687 160.098C13.6532 160.469 14.2058 160.708 14.8265 160.817L22.9277 162.156V163.61ZM18.1911 153.283L16.272 152.989V152.663L10.3839 145.811V143.949L16.1985 150.719L16.223 150.85L18.1911 153.283ZM22.9277 155.39L6.2026 152.614V151.16L22.9277 153.937V155.39ZM22.9277 147.55L16.4843 151.593L15.4798 150.409L22.9277 145.713V147.55Z" fill="url(#paint0_linear_535_43)"/>
<line x1="14.98" y1="127.921" x2="14.98" y2="-9.15527e-05" stroke="url(#paint1_linear_535_43)" stroke-width="0.639606"/>
<line x1="14.98" y1="430.663" x2="14.98" y2="302.742" stroke="url(#paint2_linear_535_43)" stroke-width="0.639606"/>
<defs>
<linearGradient id="paint0_linear_535_43" x1="28.9277" y1="143.621" x2="-19.542" y2="150.877" gradientUnits="userSpaceOnUse">
<stop stop-color="#00FFD1"/>
<stop offset="1" stop-color="#126969"/>
</linearGradient>
<linearGradient id="paint1_linear_535_43" x1="16.2998" y1="-9.15527e-05" x2="14.53" y2="0.0105593" gradientUnits="userSpaceOnUse">
<stop stop-color="#00FFD1"/>
<stop offset="1" stop-color="#126969"/>
</linearGradient>
<linearGradient id="paint2_linear_535_43" x1="16.2998" y1="302.742" x2="14.53" y2="302.752" gradientUnits="userSpaceOnUse">
<stop stop-color="#00FFD1"/>
<stop offset="1" stop-color="#126969"/>
</linearGradient>
</defs>
</svg>
