<svg width="48" height="48" viewBox="0 0 48 48" fill="none" xmlns="http://www.w3.org/2000/svg">
<path d="M47.906 9.14017C46.109 9.93139 44.2052 10.4537 42.256 10.6902C44.3082 9.45667 45.8448 7.52226 46.582 5.24417C44.68 6.35417 42.572 7.16217 40.328 7.61217C38.8475 6.02903 36.8857 4.97902 34.7473 4.62518C32.6088 4.27134 30.4134 4.63348 28.5019 5.65536C26.5903 6.67724 25.0697 8.30168 24.1761 10.2764C23.2825 12.2512 23.0659 14.4657 23.56 16.5762C15.38 16.1902 8.134 12.2602 3.28 6.32417C2.39759 7.8238 1.93733 9.53423 1.948 11.2742C1.948 14.6942 3.688 17.7002 6.324 19.4662C4.76172 19.4164 3.23394 18.994 1.868 18.2342V18.3542C1.86711 20.627 2.65254 22.8301 4.09101 24.5897C5.52949 26.3493 7.53243 27.5571 9.76 28.0082C8.3166 28.3949 6.80483 28.453 5.336 28.1782C5.96824 30.1342 7.19533 31.8441 8.84603 33.0692C10.4967 34.2943 12.4887 34.9736 14.544 35.0122C11.0631 37.7441 6.76495 39.2268 2.34 39.2222C1.56 39.2222 0.782 39.1762 0 39.0882C4.51142 41.9768 9.75703 43.5102 15.114 43.5062C33.22 43.5062 43.11 28.5142 43.11 15.5362C43.11 15.1162 43.11 14.6962 43.08 14.2762C45.012 12.8859 46.6785 11.1598 48 9.18017L47.906 9.14017Z" fill="white"/>
</svg>
